<svg width="420" height="520" viewBox="0 0 420 520" fill="none" xmlns="http://www.w3.org/2000/svg">
  <defs>
    <linearGradient id="grad" x1="0" y1="0" x2="1" y2="1">
      <stop offset="0%" stop-color="#312E81"/>
      <stop offset="50%" stop-color="#7C3AED"/>
      <stop offset="100%" stop-color="#F59E0B"/>
    </linearGradient>
    <filter id="shadow" x="-20%" y="-20%" width="140%" height="140%">
      <feDropShadow dx="0" dy="20" stdDeviation="20" flood-color="#0F172A" flood-opacity="0.35"/>
    </filter>
  </defs>
  <rect x="40" y="30" width="340" height="460" rx="28" fill="#0B1120" filter="url(#shadow)"/>
  <rect x="60" y="50" width="300" height="420" rx="24" fill="url(#grad)"/>
  <rect x="90" y="120" width="240" height="16" rx="8" fill="#F8FAFC" opacity="0.8"/>
  <rect x="90" y="160" width="210" height="16" rx="8" fill="#F8FAFC" opacity="0.6"/>
  <rect x="90" y="200" width="180" height="16" rx="8" fill="#F8FAFC" opacity="0.6"/>
  <rect x="90" y="280" width="240" height="120" rx="18" fill="rgba(15,23,42,0.45)" stroke="#F8FAFC" stroke-opacity="0.18"/>
  <circle cx="120" cy="310" r="24" fill="rgba(124,58,237,0.5)"/>
  <rect x="160" y="298" width="140" height="12" rx="6" fill="#F8FAFC" opacity="0.7"/>
  <rect x="160" y="322" width="110" height="12" rx="6" fill="#F8FAFC" opacity="0.4"/>
  <rect x="120" y="360" width="180" height="36" rx="18" fill="#F59E0B" opacity="0.9"/>
  <text x="210" y="400" text-anchor="middle" font-family="Poppins, Arial, sans-serif" font-size="18" fill="#F8FAFC" opacity="0.8">Manual da Prosperidade</text>
  <text x="210" y="450" text-anchor="middle" font-family="Poppins, Arial, sans-serif" font-size="24" fill="#F8FAFC" font-weight="600">Placeholder</text>
</svg>

