<svg xmlns="http://www.w3.org/2000/svg" xmlns:xlink="http://www.w3.org/1999/xlink" width="1080" zoomAndPan="magnify" viewBox="0 0 810 809.999993" height="1080" preserveAspectRatio="xMidYMid meet" version="1.0"><defs><clipPath id="28ece64fa3"><path d="M 172.933594 139 L 637.183594 139 L 637.183594 729 L 172.933594 729 Z M 172.933594 139 " clip-rule="nonzero"/></clipPath></defs><g clip-path="url(#28ece64fa3)"><path fill="#000000" d="M 579.007812 365.199219 L 579.007812 312.03125 C 569.496094 81.402344 240.65625 81.324219 231.105469 312.03125 C 231.105469 312.03125 231.105469 365.199219 231.105469 365.199219 C 198.90625 365.355469 172.753906 391.582031 172.753906 423.816406 C 172.753906 423.816406 172.753906 670.207031 172.753906 670.207031 C 172.753906 702.53125 199.058594 728.828125 231.394531 728.828125 C 231.394531 728.828125 578.722656 728.828125 578.722656 728.828125 C 611.066406 728.828125 637.371094 702.53125 637.371094 670.207031 L 637.371094 423.816406 C 637.371094 391.582031 611.21875 365.355469 579.007812 365.199219 Z M 252.207031 312.03125 C 260.609375 109.3125 549.539062 109.378906 557.90625 312.03125 C 557.90625 312.03125 557.90625 365.183594 557.90625 365.183594 L 526.222656 365.183594 L 526.222656 307.230469 C 526.222656 242.230469 471.859375 189.347656 405.050781 189.347656 C 338.246094 189.347656 283.890625 242.230469 283.890625 307.230469 L 283.890625 365.183594 L 252.207031 365.183594 Z M 505.121094 365.183594 L 304.996094 365.183594 L 304.996094 307.230469 C 304.996094 253.863281 349.878906 210.441406 405.050781 210.441406 C 460.226562 210.441406 505.121094 253.863281 505.121094 307.230469 Z M 616.269531 670.207031 C 616.269531 690.902344 599.421875 707.734375 578.722656 707.734375 L 231.394531 707.734375 C 210.695312 707.734375 193.855469 690.902344 193.855469 670.207031 L 193.855469 423.816406 C 193.855469 403.125 210.695312 386.28125 231.394531 386.28125 C 231.394531 386.28125 578.722656 386.28125 578.722656 386.28125 C 599.421875 386.28125 616.269531 403.125 616.269531 423.816406 Z M 616.269531 670.207031 " fill-opacity="1" fill-rule="nonzero"/></g><path fill="#000000" d="M 437.03125 470.902344 C 383.761719 431.707031 321.363281 504.421875 372.496094 548.644531 C 372.496094 548.644531 372.496094 612.210938 372.496094 612.210938 C 372.496094 629.808594 387.105469 644.113281 405.058594 644.113281 C 423.007812 644.113281 437.621094 629.804688 437.621094 612.210938 L 437.621094 548.636719 C 462.539062 529.746094 462.292969 489.511719 437.03125 470.902344 Z M 421.472656 534.265625 C 418.394531 536.191406 416.519531 539.570312 416.519531 543.207031 L 416.519531 612.210938 C 416.273438 626.363281 393.859375 626.441406 393.597656 612.210938 C 393.597656 612.210938 393.597656 543.207031 393.597656 543.207031 C 393.597656 539.570312 391.726562 536.191406 388.644531 534.265625 C 377.574219 527.332031 372.585938 514.753906 375.941406 502.21875 C 380.960938 482.242188 408.417969 474.539062 424.058594 487.539062 C 439.847656 499.207031 438.464844 524.273438 421.472656 534.265625 Z M 421.472656 534.265625 " fill-opacity="1" fill-rule="nonzero"/></svg>