<svg xmlns="http://www.w3.org/2000/svg" xmlns:xlink="http://www.w3.org/1999/xlink" width="1080" zoomAndPan="magnify" viewBox="0 0 810 809.999993" height="1080" preserveAspectRatio="xMidYMid meet" version="1.0"><path fill="#000000" d="M 402.300781 216 C 298.078125 216 213.300781 300.78125 213.300781 405 C 213.300781 509.21875 298.078125 594 402.300781 594 C 506.519531 594 591.300781 509.21875 591.300781 405 C 591.300781 300.78125 506.519531 216 402.300781 216 Z M 402.300781 567 C 312.96875 567 240.300781 494.328125 240.300781 405 C 240.300781 315.671875 312.96875 243 402.300781 243 C 491.628906 243 564.300781 315.671875 564.300781 405 C 564.300781 494.328125 491.628906 567 402.300781 567 Z M 402.300781 567 " fill-opacity="1" fill-rule="nonzero"/><path fill="#000000" d="M 473.753906 341.457031 L 375.300781 439.910156 L 330.832031 395.457031 C 325.550781 390.175781 317.019531 390.175781 311.742188 395.457031 C 306.464844 400.734375 306.464844 409.28125 311.742188 414.542969 L 365.753906 468.542969 C 368.402344 471.175781 371.859375 472.5 375.300781 472.5 C 378.742188 472.5 382.210938 471.175781 384.84375 468.542969 L 492.84375 360.542969 C 498.121094 355.265625 498.121094 346.734375 492.84375 341.457031 C 487.566406 336.175781 479.035156 336.175781 473.753906 341.457031 Z M 473.753906 341.457031 " fill-opacity="1" fill-rule="nonzero"/><path fill="#000000" d="M 670.546875 361.085938 C 664.984375 356.96875 663.253906 348.828125 666.941406 342.96875 C 680.128906 321.988281 699.285156 277.925781 633.324219 261.765625 C 626.601562 260.117188 621.621094 253.164062 623.050781 246.414062 C 629.382812 216.796875 620.515625 173.785156 560.898438 184.261719 C 554.109375 185.449219 546.886719 180.777344 545.546875 173.988281 C 541.078125 151.28125 521.828125 105.285156 464.359375 140.359375 C 458.445312 143.964844 449.023438 142.007812 446.242188 136.742188 C 437.320312 119.878906 398.238281 81 358.359375 136.742188 C 354.335938 142.371094 345.085938 143.816406 340.242188 140.347656 C 314.078125 121.609375 271.808594 116.921875 259.039062 173.960938 C 257.566406 180.507812 250.601562 185.53125 243.675781 184.222656 C 220.804688 179.875 170.613281 181.304688 181.5625 246.375 C 182.710938 253.191406 178.132812 260.710938 171.300781 261.738281 C 144.664062 265.71875 103.597656 287.117188 137.660156 342.925781 C 141.265625 348.828125 140.222656 357.925781 134.054688 361.042969 C 110.417969 372.992188 83.347656 415.488281 134.054688 448.96875 C 139.820312 452.777344 141.265625 460.972656 137.660156 466.871094 C 103.597656 522.679688 144.664062 544.0625 171.300781 548.058594 C 178.144531 549.085938 182.710938 556.605469 181.5625 563.421875 C 170.613281 628.492188 220.804688 629.921875 243.703125 625.5625 C 250.628906 624.238281 257.59375 629.277344 259.066406 635.824219 C 271.835938 692.875 314.105469 688.175781 340.265625 669.4375 C 345.113281 665.96875 354.363281 667.414062 358.382812 673.042969 C 398.261719 728.796875 437.347656 689.917969 446.269531 673.042969 C 449.050781 667.789062 458.472656 665.820312 464.386719 669.425781 C 521.855469 704.496094 541.105469 658.503906 545.574219 635.796875 C 546.910156 629.003906 554.132812 624.335938 560.925781 625.523438 C 620.542969 636 629.398438 592.988281 623.078125 563.367188 C 621.632812 556.617188 626.628906 549.664062 633.351562 548.019531 C 699.328125 531.859375 680.171875 487.796875 666.96875 466.816406 C 663.28125 460.957031 664.875 452.640625 670.546875 448.726562 C 688.175781 436.535156 726.300781 402.339844 670.546875 361.085938 Z M 651.265625 495.597656 C 655.855469 502.984375 653.023438 513.136719 642.574219 516.578125 C 623.429688 522.894531 588.15625 528.09375 597.5625 583.96875 C 599.359375 594.59375 593.675781 600.953125 581.5 600.019531 C 562.976562 598.601562 524.839844 591.109375 514.132812 645.042969 C 512.015625 655.695312 501.578125 658.003906 493.15625 653.75 C 456.8125 635.40625 442.273438 633.054688 413.679688 669.558594 C 408.214844 676.539062 396.820312 676.242188 390.960938 669.558594 C 375.597656 652.050781 358.195312 625.132812 311.472656 653.765625 C 303.34375 658.746094 294.085938 654.898438 290.492188 645.070312 C 281.164062 619.472656 278.410156 592.191406 223.113281 600.0625 C 214.582031 601.277344 205.539062 595.5 207.0625 584.011719 C 209.964844 562.03125 213.300781 526.742188 162.027344 516.617188 C 154.117188 515.050781 147.933594 504.496094 153.332031 495.640625 C 173.8125 462.144531 170.976562 441.195312 137.226562 416.015625 C 133.421875 413.179688 127.222656 400.992188 137.523438 393.621094 C 170.398438 370.101562 173.8125 347.652344 153.332031 314.144531 C 147.917969 305.289062 154.117188 294.71875 162.027344 293.164062 C 213.300781 283.039062 209.964844 247.753906 207.0625 225.773438 C 205.539062 214.285156 214.597656 208.507812 223.113281 209.722656 C 278.410156 217.578125 281.164062 190.308594 290.492188 164.714844 C 294.070312 154.871094 303.34375 151.039062 311.472656 156.019531 C 358.210938 184.652344 375.609375 157.734375 390.960938 140.222656 C 396.820312 133.542969 408.199219 133.246094 413.679688 140.222656 C 442.273438 176.730469 456.8125 174.378906 493.15625 156.03125 C 501.578125 151.78125 512.015625 154.089844 514.132812 164.742188 C 524.839844 218.671875 562.976562 211.179688 581.5 209.761719 C 593.691406 208.832031 599.359375 215.191406 597.5625 225.816406 C 588.15625 281.703125 623.429688 286.886719 642.574219 293.207031 C 653.023438 296.648438 655.855469 306.816406 651.265625 314.183594 C 621.242188 362.40625 652.96875 381.578125 667.074219 393.671875 C 672.582031 398.398438 675.757812 409.5625 668.34375 415.339844 C 651.484375 427.003906 621.242188 447.375 651.265625 495.597656 Z M 651.265625 495.597656 " fill-opacity="1" fill-rule="nonzero"/></svg>