<svg xmlns="http://www.w3.org/2000/svg" xmlns:xlink="http://www.w3.org/1999/xlink" width="1080" zoomAndPan="magnify" viewBox="0 0 810 809.999993" height="1080" preserveAspectRatio="xMidYMid meet" version="1.0"><path fill="#2b2b2b" d="M 417.132812 550.140625 C 399.742188 548.519531 385.179688 544.878906 373.179688 539.484375 C 361.316406 534.085938 351.472656 527.074219 343.789062 518.441406 C 336.101562 509.941406 330.4375 499.824219 326.800781 488.359375 C 323.160156 476.894531 321 464.351562 320.460938 450.996094 L 379.246094 450.996094 C 379.785156 466.644531 383.15625 478.648438 389.089844 486.742188 C 395.15625 494.835938 404.460938 500.097656 417 502.253906 L 417 421.589844 C 386.796875 415.925781 363.742188 406.214844 347.96875 392.320312 C 332.191406 378.425781 324.238281 357.789062 324.238281 330.273438 C 324.238281 319.347656 326.125 309.09375 329.898438 299.382812 C 333.675781 289.671875 339.472656 281.039062 347.15625 273.484375 C 354.84375 265.929688 364.550781 259.726562 376.144531 255.003906 C 387.742188 250.285156 401.359375 247.316406 417.132812 246.238281 L 417.132812 208.0625 L 444.371094 208.0625 L 444.371094 246.777344 C 462.03125 248.125 476.460938 251.632812 487.648438 257.027344 C 498.839844 262.558594 507.875 269.304688 514.75 277.394531 C 521.628906 285.488281 526.617188 294.390625 529.714844 304.105469 C 532.816406 313.816406 534.839844 323.394531 536.054688 332.835938 L 479.828125 339.984375 C 477.539062 324.605469 473.761719 313.140625 468.503906 305.722656 C 463.246094 298.304688 455.15625 293.71875 444.503906 292.097656 L 444.503906 369.390625 L 457.042969 371.953125 C 485.628906 378.15625 506.660156 388.140625 520.007812 402.03125 C 533.492188 415.925781 540.234375 436.023438 540.234375 462.328125 C 540.234375 472.714844 538.480469 482.964844 534.976562 492.945312 C 531.46875 503.0625 525.808594 512.234375 518.121094 520.464844 C 510.4375 528.691406 500.457031 535.570312 488.324219 541.101562 C 476.191406 546.496094 461.492188 549.734375 444.371094 550.542969 L 444.371094 593.84375 L 417.132812 593.84375 Z M 417.132812 291.695312 C 410.125 292.503906 404.324219 294.121094 399.875 296.550781 C 395.425781 298.976562 391.785156 301.675781 389.226562 304.777344 C 386.527344 307.882812 384.777344 311.253906 383.695312 314.894531 C 382.753906 318.535156 382.214844 322.179688 382.214844 325.820312 C 382.214844 336.476562 385.046875 344.707031 390.84375 350.371094 C 396.640625 356.171875 405.269531 360.488281 417.132812 363.589844 Z M 444.503906 503.0625 C 458.257812 501.714844 467.558594 497.261719 472.683594 489.980469 C 477.671875 482.695312 480.234375 474.199219 480.234375 464.351562 C 480.234375 457.066406 477.671875 449.78125 472.683594 442.5 C 467.695312 435.214844 458.257812 430.089844 444.503906 426.988281 Z M 444.503906 503.0625 " fill-opacity="1" fill-rule="nonzero"/><path fill="#2b2b2b" d="M 712.949219 532.332031 C 658.34375 653.597656 534.839844 729 399.742188 720.097656 C 237.40625 709.441406 107.835938 575.902344 101.632812 413.226562 C 94.757812 231.265625 240.777344 81 421.179688 81 C 497.359375 81 570.433594 108.113281 627.871094 156.808594 L 658.34375 136.167969 C 661.847656 133.875 666.296875 133.472656 670.074219 135.359375 C 673.847656 137.25 676.410156 140.890625 676.679688 145.070312 L 683.828125 243.675781 C 684.097656 247.855469 682.207031 251.902344 678.703125 254.195312 C 676.679688 255.542969 674.386719 256.21875 672.097656 256.21875 C 670.34375 256.21875 668.589844 255.8125 666.972656 255.003906 L 578.121094 211.839844 C 574.34375 209.953125 571.785156 206.3125 571.515625 202.128906 C 571.242188 197.949219 573.132812 193.902344 576.636719 191.609375 L 602.660156 173.9375 C 551.558594 133.066406 487.785156 110.40625 421.3125 110.40625 C 261.136719 110.40625 130.890625 240.707031 130.890625 401.089844 C 130.890625 552.972656 249.945312 680.710938 401.359375 690.828125 C 523.785156 699.054688 636.097656 630.9375 685.847656 521.003906 C 687.871094 516.417969 693.265625 514.394531 697.847656 516.417969 L 708.230469 520.734375 C 712.816406 522.621094 714.972656 527.882812 712.949219 532.332031 Z M 712.949219 532.332031 " fill-opacity="1" fill-rule="nonzero"/></svg>