<svg xmlns="http://www.w3.org/2000/svg" xmlns:xlink="http://www.w3.org/1999/xlink" width="1080" zoomAndPan="magnify" viewBox="0 0 810 809.999993" height="1080" preserveAspectRatio="xMidYMid meet" version="1.0"><defs><g/><clipPath id="308b5847bc"><path d="M 283.5 0 L 526.5 0 L 526.5 243 L 283.5 243 Z M 283.5 0 " clip-rule="nonzero"/></clipPath><clipPath id="e068ae5979"><path d="M 405 0 C 337.898438 0 283.5 54.398438 283.5 121.5 C 283.5 188.601562 337.898438 243 405 243 C 472.101562 243 526.5 188.601562 526.5 121.5 C 526.5 54.398438 472.101562 0 405 0 Z M 405 0 " clip-rule="nonzero"/></clipPath><clipPath id="66b956a900"><path d="M 0.5 0 L 243.5 0 L 243.5 243 L 0.5 243 Z M 0.5 0 " clip-rule="nonzero"/></clipPath><clipPath id="68317b64ef"><path d="M 122 0 C 54.898438 0 0.5 54.398438 0.5 121.5 C 0.5 188.601562 54.898438 243 122 243 C 189.101562 243 243.5 188.601562 243.5 121.5 C 243.5 54.398438 189.101562 0 122 0 Z M 122 0 " clip-rule="nonzero"/></clipPath><clipPath id="2567ba5256"><rect x="0" width="244" y="0" height="243"/></clipPath><clipPath id="b3f9bb4ee3"><path d="M 567 567 L 810 567 L 810 810 L 567 810 Z M 567 567 " clip-rule="nonzero"/></clipPath><clipPath id="29c6c8ff77"><path d="M 688.5 567 C 621.398438 567 567 621.398438 567 688.5 C 567 755.601562 621.398438 810 688.5 810 C 755.601562 810 810 755.601562 810 688.5 C 810 621.398438 755.601562 567 688.5 567 Z M 688.5 567 " clip-rule="nonzero"/></clipPath><clipPath id="f74c658812"><path d="M 0 0 L 243 0 L 243 243 L 0 243 Z M 0 0 " clip-rule="nonzero"/></clipPath><clipPath id="a46dfef217"><path d="M 121.5 0 C 54.398438 0 0 54.398438 0 121.5 C 0 188.601562 54.398438 243 121.5 243 C 188.601562 243 243 188.601562 243 121.5 C 243 54.398438 188.601562 0 121.5 0 Z M 121.5 0 " clip-rule="nonzero"/></clipPath><clipPath id="7a2a2ae152"><rect x="0" width="243" y="0" height="243"/></clipPath><clipPath id="8dfc9f14dd"><path d="M 0 567 L 243 567 L 243 810 L 0 810 Z M 0 567 " clip-rule="nonzero"/></clipPath><clipPath id="79ca34dbc7"><path d="M 121.5 567 C 54.398438 567 0 621.398438 0 688.5 C 0 755.601562 54.398438 810 121.5 810 C 188.601562 810 243 755.601562 243 688.5 C 243 621.398438 188.601562 567 121.5 567 Z M 121.5 567 " clip-rule="nonzero"/></clipPath><clipPath id="334ce2f224"><path d="M 0 0 L 243 0 L 243 243 L 0 243 Z M 0 0 " clip-rule="nonzero"/></clipPath><clipPath id="46fade90f2"><path d="M 121.5 0 C 54.398438 0 0 54.398438 0 121.5 C 0 188.601562 54.398438 243 121.5 243 C 188.601562 243 243 188.601562 243 121.5 C 243 54.398438 188.601562 0 121.5 0 Z M 121.5 0 " clip-rule="nonzero"/></clipPath><clipPath id="0d638d4017"><rect x="0" width="243" y="0" height="243"/></clipPath><clipPath id="8eebb51974"><path d="M 182 12 L 208.839844 12 L 208.839844 38 L 182 38 Z M 182 12 " clip-rule="nonzero"/></clipPath><clipPath id="fc84e01c4f"><rect x="0" width="209" y="0" height="51"/></clipPath><clipPath id="4be48a5aa0"><rect x="0" width="121" y="0" height="56"/></clipPath><clipPath id="d03d1d769d"><rect x="0" width="44" y="0" height="56"/></clipPath></defs><g clip-path="url(#308b5847bc)"><g clip-path="url(#e068ae5979)"><g transform="matrix(1, 0, 0, 1, 283, 0.000000000000039746)"><g clip-path="url(#2567ba5256)"><g clip-path="url(#66b956a900)"><g clip-path="url(#68317b64ef)"><path fill="#ff751f" d="M 0.5 0 L 243.5 0 L 243.5 243 L 0.5 243 Z M 0.5 0 " fill-opacity="1" fill-rule="nonzero"/></g></g></g></g></g></g><g clip-path="url(#b3f9bb4ee3)"><g clip-path="url(#29c6c8ff77)"><g transform="matrix(1, 0, 0, 1, 567, 567)"><g clip-path="url(#7a2a2ae152)"><g clip-path="url(#f74c658812)"><g clip-path="url(#a46dfef217)"><rect x="-745.2" width="1166.4" fill="#ff751f" height="1166.39999" y="-745.199998" fill-opacity="1"/></g></g></g></g></g></g><g clip-path="url(#8dfc9f14dd)"><g clip-path="url(#79ca34dbc7)"><g transform="matrix(1, 0, 0, 1, 0, 567)"><g clip-path="url(#0d638d4017)"><g clip-path="url(#334ce2f224)"><g clip-path="url(#46fade90f2)"><rect x="-178.2" width="1166.4" fill="#ff751f" height="1166.39999" y="-745.199998" fill-opacity="1"/></g></g></g></g></g></g><path stroke-linecap="butt" transform="matrix(-0.33541, -0.67082, 0.67082, -0.33541, 630.793964, 581.478159)" fill="none" stroke-linejoin="miter" d="M 0.000167739 5.000638 L 521.162417 4.998306 " stroke="#000000" stroke-width="10" stroke-opacity="1" stroke-miterlimit="4"/><path stroke-linecap="butt" transform="matrix(0.33541, -0.67082, 0.67082, 0.33541, 172.492862, 578.124063)" fill="none" stroke-linejoin="miter" d="M 0.000809463 5.000627 L 521.16073 4.998301 " stroke="#000000" stroke-width="10" stroke-opacity="1" stroke-miterlimit="4"/><path stroke-linecap="butt" transform="matrix(-0.75, 0, 0, -0.75, 566.999975, 692.249985)" fill="none" stroke-linejoin="miter" d="M -0.0000333667 4.99998 L 431.999988 4.99998 " stroke="#000000" stroke-width="10" stroke-opacity="1" stroke-miterlimit="4"/><g transform="matrix(1, 0, 0, 1, 17, 665)"><g clip-path="url(#fc84e01c4f)"><g fill="#000000" fill-opacity="1"><g transform="translate(0.43485, 37.702024)"><g><path d="M 11.4375 0.25 C 9.582031 0.25 7.914062 -0.0507812 6.4375 -0.65625 C 4.96875 -1.257812 3.789062 -2.148438 2.90625 -3.328125 C 2.03125 -4.515625 1.566406 -5.941406 1.515625 -7.609375 L 8.109375 -7.609375 C 8.203125 -6.660156 8.523438 -5.9375 9.078125 -5.4375 C 9.640625 -4.945312 10.367188 -4.703125 11.265625 -4.703125 C 12.179688 -4.703125 12.90625 -4.910156 13.4375 -5.328125 C 13.96875 -5.753906 14.234375 -6.34375 14.234375 -7.09375 C 14.234375 -7.71875 14.019531 -8.234375 13.59375 -8.640625 C 13.164062 -9.054688 12.644531 -9.394531 12.03125 -9.65625 C 11.414062 -9.925781 10.539062 -10.234375 9.40625 -10.578125 C 7.769531 -11.078125 6.429688 -11.582031 5.390625 -12.09375 C 4.359375 -12.601562 3.46875 -13.351562 2.71875 -14.34375 C 1.96875 -15.332031 1.59375 -16.617188 1.59375 -18.203125 C 1.59375 -20.578125 2.445312 -22.429688 4.15625 -23.765625 C 5.875 -25.109375 8.109375 -25.78125 10.859375 -25.78125 C 13.660156 -25.78125 15.914062 -25.109375 17.625 -23.765625 C 19.34375 -22.429688 20.257812 -20.566406 20.375 -18.171875 L 13.6875 -18.171875 C 13.632812 -18.992188 13.332031 -19.640625 12.78125 -20.109375 C 12.226562 -20.578125 11.515625 -20.8125 10.640625 -20.8125 C 9.890625 -20.8125 9.285156 -20.613281 8.828125 -20.21875 C 8.367188 -19.820312 8.140625 -19.25 8.140625 -18.5 C 8.140625 -17.675781 8.523438 -17.035156 9.296875 -16.578125 C 10.078125 -16.117188 11.285156 -15.625 12.921875 -15.09375 C 14.566406 -14.539062 15.898438 -14.007812 16.921875 -13.5 C 17.953125 -13 18.835938 -12.265625 19.578125 -11.296875 C 20.328125 -10.328125 20.703125 -9.082031 20.703125 -7.5625 C 20.703125 -6.113281 20.332031 -4.796875 19.59375 -3.609375 C 18.863281 -2.429688 17.796875 -1.492188 16.390625 -0.796875 C 14.992188 -0.0976562 13.34375 0.25 11.4375 0.25 Z M 11.4375 0.25 "/></g></g></g><g fill="#000000" fill-opacity="1"><g transform="translate(22.698807, 37.702024)"><g><path d="M 18.0625 -4.484375 L 8.578125 -4.484375 L 7.0625 0 L 0.578125 0 L 9.78125 -25.421875 L 16.9375 -25.421875 L 26.140625 0 L 19.578125 0 Z M 16.46875 -9.265625 L 13.328125 -18.578125 L 10.203125 -9.265625 Z M 16.46875 -9.265625 "/></g></g></g><g fill="#000000" fill-opacity="1"><g transform="translate(49.379357, 37.702024)"><g><path d="M 17.625 -13.03125 C 19.101562 -12.71875 20.285156 -11.988281 21.171875 -10.84375 C 22.066406 -9.695312 22.515625 -8.390625 22.515625 -6.921875 C 22.515625 -4.796875 21.769531 -3.109375 20.28125 -1.859375 C 18.800781 -0.617188 16.734375 0 14.078125 0 L 2.25 0 L 2.25 -25.421875 L 13.6875 -25.421875 C 16.269531 -25.421875 18.289062 -24.828125 19.75 -23.640625 C 21.207031 -22.453125 21.9375 -20.847656 21.9375 -18.828125 C 21.9375 -17.328125 21.539062 -16.082031 20.75 -15.09375 C 19.96875 -14.101562 18.925781 -13.414062 17.625 -13.03125 Z M 8.4375 -15.140625 L 12.484375 -15.140625 C 13.503906 -15.140625 14.285156 -15.359375 14.828125 -15.796875 C 15.367188 -16.242188 15.640625 -16.90625 15.640625 -17.78125 C 15.640625 -18.644531 15.367188 -19.304688 14.828125 -19.765625 C 14.285156 -20.222656 13.503906 -20.453125 12.484375 -20.453125 L 8.4375 -20.453125 Z M 13 -5 C 14.03125 -5 14.828125 -5.234375 15.390625 -5.703125 C 15.960938 -6.171875 16.25 -6.851562 16.25 -7.75 C 16.25 -8.644531 15.953125 -9.34375 15.359375 -9.84375 C 14.773438 -10.351562 13.960938 -10.609375 12.921875 -10.609375 L 8.4375 -10.609375 L 8.4375 -5 Z M 13 -5 "/></g></g></g><g fill="#000000" fill-opacity="1"><g transform="translate(73.236183, 37.702024)"><g><path d="M 8.4375 -20.453125 L 8.4375 -15.3125 L 16.71875 -15.3125 L 16.71875 -10.53125 L 8.4375 -10.53125 L 8.4375 -4.953125 L 17.8125 -4.953125 L 17.8125 0 L 2.25 0 L 2.25 -25.421875 L 17.8125 -25.421875 L 17.8125 -20.453125 Z M 8.4375 -20.453125 "/></g></g></g><g fill="#000000" fill-opacity="1"><g transform="translate(92.821228, 37.702024)"><g><path d="M 11.765625 -25.421875 C 14.441406 -25.421875 16.78125 -24.890625 18.78125 -23.828125 C 20.789062 -22.765625 22.34375 -21.269531 23.4375 -19.34375 C 24.539062 -17.425781 25.09375 -15.210938 25.09375 -12.703125 C 25.09375 -10.222656 24.539062 -8.015625 23.4375 -6.078125 C 22.34375 -4.148438 20.785156 -2.65625 18.765625 -1.59375 C 16.753906 -0.53125 14.421875 0 11.765625 0 L 2.25 0 L 2.25 -25.421875 Z M 11.375 -5.359375 C 13.707031 -5.359375 15.523438 -6 16.828125 -7.28125 C 18.140625 -8.5625 18.796875 -10.367188 18.796875 -12.703125 C 18.796875 -15.046875 18.140625 -16.867188 16.828125 -18.171875 C 15.523438 -19.472656 13.707031 -20.125 11.375 -20.125 L 8.4375 -20.125 L 8.4375 -5.359375 Z M 11.375 -5.359375 "/></g></g></g><g fill="#000000" fill-opacity="1"><g transform="translate(119.13976, 37.702024)"><g><path d="M 14.265625 0.25 C 11.878906 0.25 9.6875 -0.300781 7.6875 -1.40625 C 5.695312 -2.519531 4.113281 -4.070312 2.9375 -6.0625 C 1.769531 -8.050781 1.1875 -10.289062 1.1875 -12.78125 C 1.1875 -15.269531 1.769531 -17.503906 2.9375 -19.484375 C 4.113281 -21.460938 5.695312 -23.003906 7.6875 -24.109375 C 9.6875 -25.222656 11.878906 -25.78125 14.265625 -25.78125 C 16.648438 -25.78125 18.835938 -25.222656 20.828125 -24.109375 C 22.828125 -23.003906 24.398438 -21.460938 25.546875 -19.484375 C 26.691406 -17.503906 27.265625 -15.269531 27.265625 -12.78125 C 27.265625 -10.289062 26.679688 -8.050781 25.515625 -6.0625 C 24.359375 -4.070312 22.789062 -2.519531 20.8125 -1.40625 C 18.832031 -0.300781 16.648438 0.25 14.265625 0.25 Z M 14.265625 -5.390625 C 16.296875 -5.390625 17.921875 -6.066406 19.140625 -7.421875 C 20.359375 -8.773438 20.96875 -10.5625 20.96875 -12.78125 C 20.96875 -15.019531 20.359375 -16.8125 19.140625 -18.15625 C 17.921875 -19.5 16.296875 -20.171875 14.265625 -20.171875 C 12.210938 -20.171875 10.578125 -19.503906 9.359375 -18.171875 C 8.140625 -16.847656 7.53125 -15.050781 7.53125 -12.78125 C 7.53125 -10.53125 8.140625 -8.734375 9.359375 -7.390625 C 10.578125 -6.054688 12.210938 -5.390625 14.265625 -5.390625 Z M 14.265625 -5.390625 "/></g></g></g><g fill="#000000" fill-opacity="1"><g transform="translate(147.594188, 37.702024)"><g><path d="M 15.203125 0 L 9.921875 -9.59375 L 8.4375 -9.59375 L 8.4375 0 L 2.25 0 L 2.25 -25.421875 L 12.640625 -25.421875 C 14.640625 -25.421875 16.34375 -25.066406 17.75 -24.359375 C 19.164062 -23.660156 20.222656 -22.703125 20.921875 -21.484375 C 21.617188 -20.265625 21.96875 -18.90625 21.96875 -17.40625 C 21.96875 -15.71875 21.488281 -14.207031 20.53125 -12.875 C 19.582031 -11.550781 18.179688 -10.613281 16.328125 -10.0625 L 22.1875 0 Z M 8.4375 -13.96875 L 12.265625 -13.96875 C 13.398438 -13.96875 14.25 -14.242188 14.8125 -14.796875 C 15.382812 -15.359375 15.671875 -16.144531 15.671875 -17.15625 C 15.671875 -18.125 15.382812 -18.882812 14.8125 -19.4375 C 14.25 -20 13.398438 -20.28125 12.265625 -20.28125 L 8.4375 -20.28125 Z M 8.4375 -13.96875 "/></g></g></g><g fill="#000000" fill-opacity="1"><g transform="translate(171.197599, 37.702024)"><g><path d="M 8.4375 -25.421875 L 8.4375 0 L 2.25 0 L 2.25 -25.421875 Z M 8.4375 -25.421875 "/></g></g></g><g clip-path="url(#8eebb51974)"><g fill="#000000" fill-opacity="1"><g transform="translate(181.877068, 37.702024)"><g><path d="M 18.0625 -4.484375 L 8.578125 -4.484375 L 7.0625 0 L 0.578125 0 L 9.78125 -25.421875 L 16.9375 -25.421875 L 26.140625 0 L 19.578125 0 Z M 16.46875 -9.265625 L 13.328125 -18.578125 L 10.203125 -9.265625 Z M 16.46875 -9.265625 "/></g></g></g></g></g></g><g transform="matrix(1, 0, 0, 1, 628, 660)"><g clip-path="url(#4be48a5aa0)"><g fill="#000000" fill-opacity="1"><g transform="translate(1.124276, 41.911854)"><g><path d="M 19.609375 -4.875 L 9.3125 -4.875 L 7.65625 0 L 0.625 0 L 10.609375 -27.59375 L 18.390625 -27.59375 L 28.375 0 L 21.265625 0 Z M 17.875 -10.0625 L 14.46875 -20.15625 L 11.078125 -10.0625 Z M 17.875 -10.0625 "/></g></g></g><g fill="#000000" fill-opacity="1"><g transform="translate(30.08183, 41.911854)"><g><path d="M 15.09375 -5.890625 C 16.375 -5.890625 17.519531 -6.191406 18.53125 -6.796875 C 19.539062 -7.398438 20.316406 -8.28125 20.859375 -9.4375 L 28.25 -9.4375 C 27.539062 -6.789062 26.222656 -4.632812 24.296875 -2.96875 C 22.378906 -1.300781 20.046875 -0.285156 17.296875 0.078125 L 17.296875 1.609375 C 18.648438 1.609375 19.835938 1.976562 20.859375 2.71875 C 21.890625 3.46875 22.40625 4.59375 22.40625 6.09375 C 22.40625 7.582031 21.863281 8.710938 20.78125 9.484375 C 19.707031 10.265625 18.425781 10.65625 16.9375 10.65625 L 10.890625 10.65625 L 10.890625 6.953125 L 16.03125 6.953125 C 16.550781 6.953125 16.941406 6.875 17.203125 6.71875 C 17.472656 6.5625 17.609375 6.300781 17.609375 5.9375 C 17.609375 5.570312 17.472656 5.316406 17.203125 5.171875 C 16.941406 5.023438 16.550781 4.953125 16.03125 4.953125 L 13.25 4.953125 L 13.25 0.078125 C 10.882812 -0.179688 8.796875 -0.929688 6.984375 -2.171875 C 5.179688 -3.421875 3.78125 -5.050781 2.78125 -7.0625 C 1.789062 -9.082031 1.296875 -11.335938 1.296875 -13.828125 C 1.296875 -16.554688 1.882812 -18.988281 3.0625 -21.125 C 4.238281 -23.257812 5.878906 -24.921875 7.984375 -26.109375 C 10.097656 -27.304688 12.492188 -27.90625 15.171875 -27.90625 C 18.441406 -27.90625 21.242188 -27.039062 23.578125 -25.3125 C 25.910156 -23.582031 27.46875 -21.222656 28.25 -18.234375 L 20.859375 -18.234375 C 20.316406 -19.390625 19.539062 -20.265625 18.53125 -20.859375 C 17.519531 -21.460938 16.375 -21.765625 15.09375 -21.765625 C 13.019531 -21.765625 11.34375 -21.046875 10.0625 -19.609375 C 8.78125 -18.171875 8.140625 -16.242188 8.140625 -13.828125 C 8.140625 -11.421875 8.78125 -9.492188 10.0625 -8.046875 C 11.34375 -6.609375 13.019531 -5.890625 15.09375 -5.890625 Z M 15.09375 -5.890625 "/></g></g></g><g fill="#000000" fill-opacity="1"><g transform="translate(60.021663, 41.911854)"><g><path d="M 19.609375 -4.875 L 9.3125 -4.875 L 7.65625 0 L 0.625 0 L 10.609375 -27.59375 L 18.390625 -27.59375 L 28.375 0 L 21.265625 0 Z M 17.875 -10.0625 L 14.46875 -20.15625 L 11.078125 -10.0625 Z M 6.640625 -29.515625 C 7.265625 -33.390625 9.070312 -35.328125 12.0625 -35.328125 C 12.632812 -35.328125 13.132812 -35.238281 13.5625 -35.0625 C 14 -34.894531 14.53125 -34.640625 15.15625 -34.296875 C 15.632812 -34.035156 16.015625 -33.847656 16.296875 -33.734375 C 16.585938 -33.617188 16.890625 -33.5625 17.203125 -33.5625 C 18.171875 -33.5625 18.734375 -34.148438 18.890625 -35.328125 L 22.359375 -35.328125 C 21.722656 -31.453125 19.914062 -29.515625 16.9375 -29.515625 C 16.351562 -29.515625 15.84375 -29.597656 15.40625 -29.765625 C 14.976562 -29.929688 14.453125 -30.1875 13.828125 -30.53125 C 13.359375 -30.789062 12.976562 -30.976562 12.6875 -31.09375 C 12.394531 -31.21875 12.09375 -31.28125 11.78125 -31.28125 C 10.8125 -31.28125 10.234375 -30.691406 10.046875 -29.515625 Z M 6.640625 -29.515625 "/></g></g></g><g fill="#000000" fill-opacity="1"><g transform="translate(88.979217, 41.911854)"><g><path d="M 15.484375 0.28125 C 12.890625 0.28125 10.507812 -0.320312 8.34375 -1.53125 C 6.1875 -2.738281 4.472656 -4.421875 3.203125 -6.578125 C 1.929688 -8.742188 1.296875 -11.175781 1.296875 -13.875 C 1.296875 -16.570312 1.929688 -18.992188 3.203125 -21.140625 C 4.472656 -23.285156 6.1875 -24.960938 8.34375 -26.171875 C 10.507812 -27.378906 12.890625 -27.984375 15.484375 -27.984375 C 18.078125 -27.984375 20.453125 -27.378906 22.609375 -26.171875 C 24.773438 -24.960938 26.476562 -23.285156 27.71875 -21.140625 C 28.96875 -18.992188 29.59375 -16.570312 29.59375 -13.875 C 29.59375 -11.175781 28.960938 -8.742188 27.703125 -6.578125 C 26.441406 -4.421875 24.738281 -2.738281 22.59375 -1.53125 C 20.445312 -0.320312 18.078125 0.28125 15.484375 0.28125 Z M 15.484375 -5.859375 C 17.679688 -5.859375 19.441406 -6.585938 20.765625 -8.046875 C 22.085938 -9.515625 22.75 -11.457031 22.75 -13.875 C 22.75 -16.3125 22.085938 -18.253906 20.765625 -19.703125 C 19.441406 -21.160156 17.679688 -21.890625 15.484375 -21.890625 C 13.253906 -21.890625 11.476562 -21.164062 10.15625 -19.71875 C 8.832031 -18.28125 8.171875 -16.332031 8.171875 -13.875 C 8.171875 -11.4375 8.832031 -9.488281 10.15625 -8.03125 C 11.476562 -6.582031 13.253906 -5.859375 15.484375 -5.859375 Z M 15.484375 -5.859375 "/></g></g></g></g></g><g transform="matrix(1, 0, 0, 1, 383, 94)"><g clip-path="url(#d03d1d769d)"><g fill="#000000" fill-opacity="1"><g transform="translate(0.622593, 40.911868)"><g><path d="M 20.390625 -27.59375 L 20.390625 -22.203125 L 9.15625 -22.203125 L 9.15625 -16.390625 L 17.5625 -16.390625 L 17.5625 -11.15625 L 9.15625 -11.15625 L 9.15625 0 L 2.4375 0 L 2.4375 -27.59375 Z M 20.390625 -27.59375 "/></g></g></g><g fill="#000000" fill-opacity="1"><g transform="translate(22.114832, 40.911868)"><g><path d="M 9.15625 -22.203125 L 9.15625 -16.625 L 18.15625 -16.625 L 18.15625 -11.4375 L 9.15625 -11.4375 L 9.15625 -5.390625 L 19.328125 -5.390625 L 19.328125 0 L 2.4375 0 L 2.4375 -27.59375 L 19.328125 -27.59375 L 19.328125 -22.203125 Z M 15.28125 -33.125 L 5.8125 -29.15625 L 5.8125 -33.796875 L 15.28125 -38.34375 Z M 15.28125 -33.125 "/></g></g></g></g></g></svg>