<svg xmlns="http://www.w3.org/2000/svg" width="1920" height="711" viewBox="0 0 1920 711" fill="none"><g clip-path="url(#clip0_74_17)"><rect width="1920" height="10410" transform="translate(0 -4055)" fill="#0E0E0E"></rect><g opacity="0.1"><g clip-path="url(#clip1_74_17)"><path opacity="0.5" d="M8.22251 615.083H6.86133V1160.92H8.22251V615.083Z" fill="white"></path><path opacity="0.2" d="M35.514 615.083H34.1528V1160.92H35.514V615.083Z" fill="white"></path><path opacity="0.2" d="M62.8055 615.083H61.4443V1160.92H62.8055V615.083Z" fill="white"></path><path opacity="0.2" d="M90.0975 615.083H88.7363V1160.92H90.0975V615.083Z" fill="white"></path><path opacity="0.2" d="M117.389 615.083H116.028V1160.92H117.389V615.083Z" fill="white"></path><path opacity="0.5" d="M144.681 615.083H143.319V1160.92H144.681V615.083Z" fill="white"></path><path opacity="0.2" d="M171.973 615.083H170.611V1160.92H171.973V615.083Z" fill="white"></path><path opacity="0.2" d="M199.264 615.083H197.903V1160.92H199.264V615.083Z" fill="white"></path><path opacity="0.2" d="M226.556 615.083H225.194V1160.92H226.556V615.083Z" fill="white"></path><path opacity="0.2" d="M253.847 615.083H252.486V1160.92H253.847V615.083Z" fill="white"></path><path opacity="0.5" d="M281.139 615.083H279.778V1160.92H281.139V615.083Z" fill="white"></path><path opacity="0.2" d="M308.431 615.083H307.069V1160.92H308.431V615.083Z" fill="white"></path><path opacity="0.2" d="M335.722 615.083H334.361V1160.92H335.722V615.083Z" fill="white"></path><path opacity="0.2" d="M363.014 615.083H361.653V1160.92H363.014V615.083Z" fill="white"></path><path opacity="0.2" d="M390.306 615.083H388.944V1160.92H390.306V615.083Z" fill="white"></path><path opacity="0.5" d="M416.916 615.764H415.555V1160.24H416.916V615.764Z" fill="white"></path><path opacity="0.5" d="M416.236 615.083H-128.236V616.445H416.236V615.083Z" fill="white"></path><path opacity="0.2" d="M416.916 641.695H-128.917V643.056H416.916V641.695Z" fill="white"></path><path opacity="0.2" d="M416.916 668.986H-128.917V670.348H416.916V668.986Z" fill="white"></path><path opacity="0.2" d="M416.916 696.278H-128.917V697.639H416.916V696.278Z" fill="white"></path><path d="M416.916 611H415.555V620.528H416.916V611Z" fill="white"></path><path d="M421 615.083H411.472V616.445H421V615.083Z" fill="white"></path><path d="M8.56235 611H7.20117V620.528H8.56235V611Z" fill="white"></path><path d="M12.6459 615.083H3.11768V616.445H12.6459V615.083Z" fill="white"></path><path d="M144.681 611H143.319V620.528H144.681V611Z" fill="white"></path><path d="M148.764 615.083H139.236V616.445H148.764V615.083Z" fill="white"></path><path d="M280.799 611H279.438V620.528H280.799V611Z" fill="white"></path><path d="M284.882 615.083H275.354V616.445H284.882V615.083Z" fill="white"></path><path d="M76.6214 683.143H75.2603V684.504H76.6214V683.143Z" fill="white"></path><path d="M212.74 683.143H211.378V684.504H212.74V683.143Z" fill="white"></path><path d="M348.857 683.143H347.496V684.504H348.857V683.143Z" fill="white"></path></g><g clip-path="url(#clip2_74_17)"><path opacity="0.5" d="M416.445 615.764H415.083V1160.24H416.445V615.764Z" fill="white"></path><path opacity="0.2" d="M443.056 615.083H441.695V1160.92H443.056V615.083Z" fill="white"></path><path opacity="0.2" d="M470.348 615.083H468.986V1160.92H470.348V615.083Z" fill="white"></path><path opacity="0.2" d="M497.639 615.083H496.278V1160.92H497.639V615.083Z" fill="white"></path><path opacity="0.2" d="M524.931 615.083H523.569V1160.92H524.931V615.083Z" fill="white"></path><path opacity="0.5" d="M552.223 615.083H550.861V1160.92H552.223V615.083Z" fill="white"></path><path opacity="0.2" d="M579.514 615.083H578.153V1160.92H579.514V615.083Z" fill="white"></path><path opacity="0.2" d="M606.806 615.083H605.444V1160.92H606.806V615.083Z" fill="white"></path><path opacity="0.2" d="M634.098 615.083H632.736V1160.92H634.098V615.083Z" fill="white"></path><path opacity="0.2" d="M661.389 615.083H660.028V1160.92H661.389V615.083Z" fill="white"></path><path opacity="0.5" d="M688.681 615.083H687.319V1160.92H688.681V615.083Z" fill="white"></path><path opacity="0.2" d="M715.973 615.083H714.611V1160.92H715.973V615.083Z" fill="white"></path><path opacity="0.2" d="M743.264 615.083H741.903V1160.92H743.264V615.083Z" fill="white"></path><path opacity="0.2" d="M770.556 615.083H769.194V1160.92H770.556V615.083Z" fill="white"></path><path opacity="0.2" d="M797.847 615.083H796.486V1160.92H797.847V615.083Z" fill="white"></path><path opacity="0.5" d="M825.139 615.083H823.778V1160.92H825.139V615.083Z" fill="white"></path><path opacity="0.2" d="M852.431 615.083H851.069V1160.92H852.431V615.083Z" fill="white"></path><path opacity="0.2" d="M879.722 615.083H878.361V1160.92H879.722V615.083Z" fill="white"></path><path opacity="0.2" d="M907.014 615.083H905.653V1160.92H907.014V615.083Z" fill="white"></path><path opacity="0.2" d="M934.306 615.083H932.944V1160.92H934.306V615.083Z" fill="white"></path><path opacity="0.5" d="M960.916 615.764H959.555V1160.24H960.916V615.764Z" fill="white"></path><path opacity="0.5" d="M960.236 615.083H415.764V616.445H960.236V615.083Z" fill="white"></path><path opacity="0.2" d="M960.916 641.695H415.083V643.056H960.916V641.695Z" fill="white"></path><path opacity="0.2" d="M960.916 668.986H415.083V670.348H960.916V668.986Z" fill="white"></path><path opacity="0.2" d="M960.916 696.278H415.083V697.639H960.916V696.278Z" fill="white"></path><path d="M416.445 611H415.083V620.528H416.445V611Z" fill="white"></path><path d="M420.528 615.083H411V616.445H420.528V615.083Z" fill="white"></path><path d="M960.916 611H959.555V620.528H960.916V611Z" fill="white"></path><path d="M965 615.083H955.472V616.445H965V615.083Z" fill="white"></path><path d="M552.562 611H551.201V620.528H552.562V611Z" fill="white"></path><path d="M556.646 615.083H547.118V616.445H556.646V615.083Z" fill="white"></path><path d="M688.681 611H687.319V620.528H688.681V611Z" fill="white"></path><path d="M692.764 615.083H683.236V616.445H692.764V615.083Z" fill="white"></path><path d="M824.799 611H823.438V620.528H824.799V611Z" fill="white"></path><path d="M828.882 615.083H819.354V616.445H828.882V615.083Z" fill="white"></path><path d="M484.504 683.143H483.143V684.504H484.504V683.143Z" fill="white"></path><path d="M620.621 683.143H619.26V684.504H620.621V683.143Z" fill="white"></path><path d="M756.74 683.143H755.378V684.504H756.74V683.143Z" fill="white"></path><path d="M892.857 683.143H891.496V684.504H892.857V683.143Z" fill="white"></path></g><g clip-path="url(#clip3_74_17)"><path opacity="0.5" d="M960.445 615.764H959.083V1160.24H960.445V615.764Z" fill="white"></path><path opacity="0.2" d="M987.056 615.083H985.695V1160.92H987.056V615.083Z" fill="white"></path><path opacity="0.2" d="M1014.35 615.083H1012.99V1160.92H1014.35V615.083Z" fill="white"></path><path opacity="0.2" d="M1041.64 615.083H1040.28V1160.92H1041.64V615.083Z" fill="white"></path><path opacity="0.2" d="M1068.93 615.083H1067.57V1160.92H1068.93V615.083Z" fill="white"></path><path opacity="0.5" d="M1096.22 615.083H1094.86V1160.92H1096.22V615.083Z" fill="white"></path><path opacity="0.2" d="M1123.51 615.083H1122.15V1160.92H1123.51V615.083Z" fill="white"></path><path opacity="0.2" d="M1150.81 615.083H1149.44V1160.92H1150.81V615.083Z" fill="white"></path><path opacity="0.2" d="M1178.1 615.083H1176.74V1160.92H1178.1V615.083Z" fill="white"></path><path opacity="0.2" d="M1205.39 615.083H1204.03V1160.92H1205.39V615.083Z" fill="white"></path><path opacity="0.5" d="M1232.68 615.083H1231.32V1160.92H1232.68V615.083Z" fill="white"></path><path opacity="0.2" d="M1259.97 615.083H1258.61V1160.92H1259.97V615.083Z" fill="white"></path><path opacity="0.2" d="M1287.26 615.083H1285.9V1160.92H1287.26V615.083Z" fill="white"></path><path opacity="0.2" d="M1314.56 615.083H1313.19V1160.92H1314.56V615.083Z" fill="white"></path><path opacity="0.2" d="M1341.85 615.083H1340.49V1160.92H1341.85V615.083Z" fill="white"></path><path opacity="0.5" d="M1369.14 615.083H1367.78V1160.92H1369.14V615.083Z" fill="white"></path><path opacity="0.2" d="M1396.43 615.083H1395.07V1160.92H1396.43V615.083Z" fill="white"></path><path opacity="0.2" d="M1423.72 615.083H1422.36V1160.92H1423.72V615.083Z" fill="white"></path><path opacity="0.2" d="M1451.01 615.083H1449.65V1160.92H1451.01V615.083Z" fill="white"></path><path opacity="0.2" d="M1478.31 615.083H1476.94V1160.92H1478.31V615.083Z" fill="white"></path><path opacity="0.5" d="M1504.92 615.764H1503.56V1160.24H1504.92V615.764Z" fill="white"></path><path opacity="0.5" d="M1504.24 615.083H959.764V616.445H1504.24V615.083Z" fill="white"></path><path opacity="0.2" d="M1504.92 641.695H959.083V643.056H1504.92V641.695Z" fill="white"></path><path opacity="0.2" d="M1504.92 668.986H959.083V670.348H1504.92V668.986Z" fill="white"></path><path opacity="0.2" d="M1504.92 696.278H959.083V697.639H1504.92V696.278Z" fill="white"></path><path d="M960.445 611H959.083V620.528H960.445V611Z" fill="white"></path><path d="M964.528 615.083H955V616.445H964.528V615.083Z" fill="white"></path><path d="M1504.92 611H1503.56V620.528H1504.92V611Z" fill="white"></path><path d="M1509 615.083H1499.47V616.445H1509V615.083Z" fill="white"></path><path d="M1096.56 611H1095.2V620.528H1096.56V611Z" fill="white"></path><path d="M1100.65 615.083H1091.12V616.445H1100.65V615.083Z" fill="white"></path><path d="M1232.68 611H1231.32V620.528H1232.68V611Z" fill="white"></path><path d="M1236.76 615.083H1227.24V616.445H1236.76V615.083Z" fill="white"></path><path d="M1368.8 611H1367.44V620.528H1368.8V611Z" fill="white"></path><path d="M1372.88 615.083H1363.35V616.445H1372.88V615.083Z" fill="white"></path><path d="M1028.5 683.143H1027.14V684.504H1028.5V683.143Z" fill="white"></path><path d="M1164.62 683.143H1163.26V684.504H1164.62V683.143Z" fill="white"></path><path d="M1300.74 683.143H1299.38V684.504H1300.74V683.143Z" fill="white"></path><path d="M1436.86 683.143H1435.5V684.504H1436.86V683.143Z" fill="white"></path></g><g clip-path="url(#clip4_74_17)"><path opacity="0.5" d="M1504.44 615.764H1503.08V1160.24H1504.44V615.764Z" fill="white"></path><path opacity="0.2" d="M1531.06 615.083H1529.69V1160.92H1531.06V615.083Z" fill="white"></path><path opacity="0.2" d="M1558.35 615.083H1556.99V1160.92H1558.35V615.083Z" fill="white"></path><path opacity="0.2" d="M1585.64 615.083H1584.28V1160.92H1585.64V615.083Z" fill="white"></path><path opacity="0.2" d="M1612.93 615.083H1611.57V1160.92H1612.93V615.083Z" fill="white"></path><path opacity="0.5" d="M1640.22 615.083H1638.86V1160.92H1640.22V615.083Z" fill="white"></path><path opacity="0.2" d="M1667.51 615.083H1666.15V1160.92H1667.51V615.083Z" fill="white"></path><path opacity="0.2" d="M1694.81 615.083H1693.44V1160.92H1694.81V615.083Z" fill="white"></path><path opacity="0.2" d="M1722.1 615.083H1720.74V1160.92H1722.1V615.083Z" fill="white"></path><path opacity="0.2" d="M1749.39 615.083H1748.03V1160.92H1749.39V615.083Z" fill="white"></path><path opacity="0.5" d="M1776.68 615.083H1775.32V1160.92H1776.68V615.083Z" fill="white"></path><path opacity="0.2" d="M1803.97 615.083H1802.61V1160.92H1803.97V615.083Z" fill="white"></path><path opacity="0.2" d="M1831.26 615.083H1829.9V1160.92H1831.26V615.083Z" fill="white"></path><path opacity="0.2" d="M1858.56 615.083H1857.19V1160.92H1858.56V615.083Z" fill="white"></path><path opacity="0.2" d="M1885.85 615.083H1884.49V1160.92H1885.85V615.083Z" fill="white"></path><path opacity="0.5" d="M1913.14 615.083H1911.78V1160.92H1913.14V615.083Z" fill="white"></path><path opacity="0.5" d="M2048.24 615.083H1503.76V616.445H2048.24V615.083Z" fill="white"></path><path opacity="0.2" d="M2048.92 641.695H1503.08V643.056H2048.92V641.695Z" fill="white"></path><path opacity="0.2" d="M2048.92 668.986H1503.08V670.348H2048.92V668.986Z" fill="white"></path><path opacity="0.2" d="M2048.92 696.278H1503.08V697.639H2048.92V696.278Z" fill="white"></path><path d="M1504.44 611H1503.08V620.528H1504.44V611Z" fill="white"></path><path d="M1508.53 615.083H1499V616.445H1508.53V615.083Z" fill="white"></path><path d="M1640.56 611H1639.2V620.528H1640.56V611Z" fill="white"></path><path d="M1644.65 615.083H1635.12V616.445H1644.65V615.083Z" fill="white"></path><path d="M1776.68 611H1775.32V620.528H1776.68V611Z" fill="white"></path><path d="M1780.76 615.083H1771.24V616.445H1780.76V615.083Z" fill="white"></path><path d="M1912.8 611H1911.44V620.528H1912.8V611Z" fill="white"></path><path d="M1916.88 615.083H1907.35V616.445H1916.88V615.083Z" fill="white"></path><path d="M1572.5 683.143H1571.14V684.504H1572.5V683.143Z" fill="white"></path><path d="M1708.62 683.143H1707.26V684.504H1708.62V683.143Z" fill="white"></path><path d="M1844.74 683.143H1843.38V684.504H1844.74V683.143Z" fill="white"></path></g></g><rect x="-111.889" y="-49" width="2173.3" height="717.035" transform="rotate(2.42394 -111.889 -49)" fill="url(#paint0_linear_74_17)"></rect><rect width="1920" height="711" fill="#171717"></rect></g><defs><linearGradient id="paint0_linear_74_17" x1="-78.2815" y1="448.298" x2="1841.09" y2="448.298" gradientUnits="userSpaceOnUse"><stop stop-color="#01B3FF"></stop><stop offset="1" stop-color="#0056D6"></stop></linearGradient><clipPath id="clip0_74_17"><rect width="1920" height="10410" fill="white" transform="translate(0 -4055)"></rect></clipPath><clipPath id="clip1_74_17"><rect width="554" height="554" fill="white" transform="translate(-133 611)"></rect></clipPath><clipPath id="clip2_74_17"><rect width="554" height="554" fill="white" transform="translate(411 611)"></rect></clipPath><clipPath id="clip3_74_17"><rect width="554" height="554" fill="white" transform="translate(955 611)"></rect></clipPath><clipPath id="clip4_74_17"><rect width="554" height="554" fill="white" transform="translate(1499 611)"></rect></clipPath></defs></svg>